<svg width="64" viewBox="0 0 380 230" fill="none" xmlns="http://www.w3.org/2000/svg">
<path d="M149.162 79.1535C171.018 79.1535 188.736 61.4354 188.736 39.5789C188.736 17.7225 171.018 0.00439453 149.162 0.00439453C127.306 0.00439453 109.587 17.7225 109.587 39.5789C109.587 61.4354 127.306 79.1535 149.162 79.1535Z" fill="#FCFCFC"/>
<path d="M189.958 229.995C142.31 229.995 97.4167 217.569 63.5726 194.995C22.5733 167.673 0 126.69 0 79.6118H63.3193C63.3193 139.433 128.966 166.676 189.958 166.676C250.95 166.676 316.596 139.433 316.596 79.6118H379.916C379.916 126.69 357.342 167.673 316.343 194.995C282.483 217.569 237.606 229.995 189.958 229.995Z" fill="#FCFCFC"/>
</svg>
