<?xml version="1.0" standalone="no"?>
<!DOCTYPE svg PUBLIC "-//W3C//DTD SVG 20010904//EN"
 "http://www.w3.org/TR/2001/REC-SVG-20010904/DTD/svg10.dtd">
<svg version="1.0" xmlns="http://www.w3.org/2000/svg"
 width="700.000000pt" height="700.000000pt" viewBox="0 0 700.000000 700.000000"
 preserveAspectRatio="xMidYMid meet">
<metadata>
Created by potrace 1.14, written by Peter Selinger 2001-2017
</metadata>
<g transform="translate(0.000000,700.000000) scale(0.100000,-0.100000)"
fill="#000000" stroke="none">
<path d="M2880 4925 c-106 -24 -186 -69 -266 -150 -82 -82 -126 -164 -149
-270 -18 -88 -18 -132 0 -220 60 -286 336 -474 624 -425 253 43 451 277 451
535 0 283 -231 526 -515 541 -50 2 -105 -2 -145 -11z"/>
<path d="M955 3768 c30 -407 131 -700 343 -997 81 -114 246 -288 356 -378 377
-303 867 -498 1461 -579 185 -26 694 -26 880 -1 388 53 697 143 1000 292 579
284 957 722 1100 1272 31 117 55 292 55 393 l0 80 -434 0 -433 0 -6 -87 c-26
-358 -249 -664 -626 -857 -140 -72 -256 -116 -401 -155 -899 -238 -1912 13
-2268 563 -91 141 -152 329 -152 474 l0 62 -441 0 -440 0 6 -82z"/>
</g>
</svg>
